<?xml version="1.0" encoding="UTF-8"?>
<svg id="Layer_1" data-name="Layer 1" xmlns="http://www.w3.org/2000/svg" viewBox="0 0 135 72">
  <defs>
    <style>
      .cls-1 {
        fill: none;
        stroke: #1b1b1b;
        stroke-linecap: round;
        stroke-linejoin: round;
        stroke-width: 4px;
      }
    </style>
  </defs>
  <path class="cls-1" d="M36.4,36H13.5c-2.47,0-4.5,2.02-4.5,4.5s2.03,4.5,4.5,4.5h22.9c1.34,5.16,6.04,9,11.6,9H114c6.6,0,12-5.4,12-12v-6H36.4Z"/>
  <rect class="cls-1" x="36" y="54" width="90" height="9" rx="4.5" ry="4.5"/>
  <path class="cls-1" d="M81.65,26.73c-.36,.36-.94,.36-1.3,0l-3.85-3.85s-4.5-4.5-4.5-9,4.5-4.5,4.5-4.5c0,0,2.53,0,3.8,1.9,.35,.52,1.15,.49,1.49-.04,.62-.98,1.73-1.86,3.72-1.86,4.5,0,4.5,4.5,4.5,4.5,0,0,0,4.5-4.5,9l-3.85,3.85Z"/>
</svg>